#!OML:ASF X:\für Bonn\!DataBase\2005_08_12_Daniel\c3d\Daniel.ASF
:FULLY-SPECIFIED
:DEGREES
1329
root -0.556592 18.692 -2.00231 -156.772 -75.5086 149.797
lowerback 18.9497 0.135948 -1.31727
upperback 5.1709 -0.744037 -3.85341
thorax -5.07108 -0.537371 -3.18111
lowerneck -5.73131 2.45135 -1.67006
upperneck 3.84588 3.57869 -4.14247
head 2.24984 1.61721 -0.898423
rclavicle 1.2921e-015 3.1408e-014
rhumerus -9.42846 28.5264 -86.4001
rradius 70.3602
rwrist -20.9536
rhand -27.4983 33.3195
rfingers 7.12502
rthumb -0.90137 3.34169
lclavicle 1.2921e-015 3.1408e-014
lhumerus -58.812 -23.6583 102.31
lradius 73.9029
lwrist 40.0557
lhand -16.3877 -10.2028
lfingers 7.12502
lthumb 9.82614 19.548
rfemur -10.5398 6.78381 13.516
rtibia 39.8596
rfoot 6.15314 -5.64996
rtoes -13.8175
lfemur -9.88951 5.65919 -25.3195
ltibia 48.1594
lfoot -6.17301 2.40653
ltoes 3.15844
1330
root -0.54845 18.6841 -2.00363 -158.211 -75.4913 150.825
lowerback 19.3669 0.580823 -0.706881
upperback 5.38798 -0.0782397 -3.92778
thorax -5.0234 -0.221948 -3.76769
lowerneck -5.94064 2.06402 -1.80278
upperneck 4.06066 3.06851 -3.68483
head 2.33978 1.37042 -0.746375
rclavicle 2.17669e-014 3.39922e-014
rhumerus -6.06841 27.7297 -84.7
rradius 69.6009
rwrist -21.3379
rhand -27.7168 33.3819
rfingers 7.12502
rthumb -1.11242 3.40508
lclavicle 2.17669e-014 3.39922e-014
lhumerus -61.5948 -24.8259 102.847
lradius 74.5605
lwrist 39.7556
lhand -17.1448 -11.143
lfingers 7.12502
lthumb 9.09565 18.6409
rfemur -8.4124 5.41442 13.6272
rtibia 40.0783
rfoot 6.31367 -4.48555
rtoes -14.4286
lfemur -11.2501 6.32396 -24.8382
ltibia 48.8575
lfoot -5.95421 2.32542
ltoes 3.13405
1331
root -0.54402 18.6696 -2.00746 -159.005 -75.5001 151.224
lowerback 19.7099 1.01158 -0.22052
upperback 5.60903 0.548483 -4.01979
thorax -4.9179 0.0769733 -4.29691
lowerneck -6.12822 1.67269 -1.9385
upperneck 4.25684 2.55135 -3.25689
head 2.42425 1.1204 -0.604682
rclavicle -1.18774e-014 -2.36554e-014
rhumerus -2.68814 26.7568 -82.9806
rradius 68.726
rwrist -21.74
rhand -27.8654 33.5549
rfingers 7.12502
rthumb -1.25592 3.57889
lclavicle -1.18774e-014 -2.36554e-014
lhumerus -64.2668 -25.9275 103.285
lradius 75.2936
lwrist 39.6673
lhand -18.0937 -11.9975
lfingers 7.12502
lthumb 8.17986 17.8242
rfemur -6.1895 4.19316 13.509
rtibia 40.1686
rfoot 5.91123 -3.92657
rtoes -13.5288
lfemur -12.5914 6.88671 -24.5192
ltibia 49.366
lfoot -5.51634 2.21972
ltoes 3.13708
1332
root -0.541937 18.6398 -2.01358 -159.226 -75.5583 151.039
lowerback 20.0244 1.41986 0.129002
upperback 5.83991 1.1226 -4.08831
thorax -4.77987 0.352659 -4.71178
lowerneck -6.3368 1.28375 -2.18565
upperneck 4.42396 2.04361 -2.80764
head 2.50544 0.874594 -0.437323
rclavicle -3.90115e-014 3.22031e-014
rhumerus 0.653706 25.6746 -81.2201
rradius 67.8103
rwrist -22.1542
rhand -28.0252 33.7876
rfingers 7.12502
rthumb -1.41029 3.81251
lclavicle -3.90115e-014 3.22031e-014
lhumerus -66.4862 -26.5308 103.422
lradius 75.7124
lwrist 39.4617
lhand -18.9211 -12.7831
lfingers 7.12502
lthumb 7.38134 17.0682
rfemur -3.85474 3.11297 13.204
rtibia 40.1276
rfoot 4.98614 -3.99758
rtoes -12.2425
lfemur -13.8889 7.36417 -24.345
ltibia 49.6899
lfoot -4.86992 2.01712
ltoes 2.87567
1333
root -0.542873 18.5996 -2.02106 -158.878 -75.6426 150.332
lowerback 20.2521 1.82317 0.37123
upperback 6.06851 1.67293 -4.15499
thorax -4.59446 0.619793 -5.05571
lowerneck -6.53724 0.889118 -2.43793
upperneck 4.57025 1.52878 -2.39063
head 2.58344 0.625005 -0.280433
rclavicle -1.64991e-014 2.44505e-014
rhumerus 3.93129 24.435 -79.4498
rradius 66.8099
rwrist -22.6653
rhand -28.1168 34.1651
rfingers 7.12502
rthumb -1.49872 4.19061
lclavicle -1.64991e-014 2.44505e-014
lhumerus -68.1736 -26.6167 103.096
lradius 75.7111
lwrist 39.0669
lhand -19.4301 -13.5317
lfingers 7.12502
lthumb 6.88997 16.3362
rfemur -1.54141 2.05684 12.6834
rtibia 40.0012
rfoot 3.80149 -4.29444
rtoes -10.9008
lfemur -15.1554 7.77719 -24.3196
ltibia 49.8068
lfoot -4.07106 1.73839
ltoes 2.50176
1334
root -0.545923 18.5442 -2.03115 -158.328 -75.7626 149.362
lowerback 20.5287 2.21486 0.533327
upperback 6.29537 2.19358 -4.17972
thorax -4.43662 0.872928 -5.30374
lowerneck -6.64167 0.507386 -2.71501
upperneck 4.67262 1.03089 -2.02768
head 2.63364 0.383098 -0.136862
rclavicle -3.30976e-014 5.56597e-015
rhumerus 7.03784 23.0858 -77.7404
rradius 65.7545
rwrist -23.251
rhand -28.1343 34.6466
rfingers 7.12502
rthumb -1.51567 4.67224
lclavicle -3.30976e-014 5.56597e-015
lhumerus -69.8004 -26.6256 102.639
lradius 75.8785
lwrist 38.9331
lhand -19.9287 -14.0886
lfingers 7.12502
lthumb 6.40861 15.7944
rfemur 0.857272 0.941011 11.9938
rtibia 39.7928
rfoot 2.44387 -4.68089
rtoes -9.66923
lfemur -16.2341 8.12798 -24.3541
ltibia 49.7572
lfoot -3.16924 1.46021
ltoes 1.98098
1335
root -0.546551 18.4791 -2.04128 -157.465 -75.9194 148.371
lowerback 20.5297 2.58134 0.682019
upperback 6.44227 2.69833 -4.16859
thorax -4.2225 1.12514 -5.48951
lowerneck -6.6359 0.135699 -3.01587
upperneck 4.69377 0.543941 -1.70442
head 2.64002 0.146811 -0.00202476
rclavicle 8.07563e-015 -1.49089e-015
rhumerus 9.95409 21.6461 -76.0959
rradius 64.7121
rwrist -23.8512
rhand -28.0935 35.0088
rfingers 7.12502
rthumb -1.47624 5.0342
lclavicle 8.07563e-015 -1.49089e-015
lhumerus -71.3322 -26.5985 102.049
lradius 76.2032
lwrist 38.935
lhand -20.4416 -14.4388
lfingers 7.12502
lthumb 5.91345 15.4587
rfemur 2.91092 -0.173738 11.2353
rtibia 39.5189
rfoot 1.01039 -5.12412
rtoes -8.79805
lfemur -17.5658 8.42423 -24.4431
ltibia 49.5878
lfoot -2.13664 1.21021
ltoes 1.01458
1336
root -0.546079 18.4035 -2.05227 -156.649 -76.1266 147.499
lowerback 20.4687 2.92989 0.877085
upperback 6.57166 3.1953 -4.13012
thorax -3.99191 1.37666 -5.66471
lowerneck -6.61281 -0.231986 -3.27044
upperneck 4.71382 0.0599026 -1.4277
head 2.64653 -0.0887809 0.110028
rclavicle 2.69353e-014 -2.71341e-014
rhumerus 12.6348 20.0864 -74.6123
rradius 63.6729
rwrist -24.3905
rhand -28.0355 35.3461
rfingers 7.12502
rthumb -1.4202 5.37113
lclavicle 2.69353e-014 -2.71341e-014
lhumerus -72.7246 -26.6365 101.31
lradius 76.7256
lwrist 39.1331
lhand -20.904 -14.5278
lfingers 7.12502
lthumb 5.46702 15.3817
rfemur 4.87677 -1.1701 10.5172
rtibia 39.1425
rfoot -0.421543 -5.73116
rtoes -8.29793
lfemur -18.9069 8.68957 -24.4992
ltibia 49.3447
lfoot -1.00844 1.00528
ltoes -0.147236
1337
root -0.543731 18.3229 -2.06445 -155.962 -76.3814 146.793
lowerback 20.4245 3.24954 1.09447
upperback 6.66104 3.66414 -4.05066
thorax -3.81441 1.61525 -5.80162
lowerneck -6.43517 -0.570392 -3.51925
upperneck 4.62835 -0.39401 -1.16684
head 2.59129 -0.30757 0.217506
rclavicle 5.84427e-014 -5.60573e-014
rhumerus 15.0662 18.5213 -73.2209
rradius 62.7136
rwrist -24.9144
rhand -27.8926 35.3851
rfingers 7.12502
rthumb -1.2822 5.40916
lclavicle 5.84427e-014 -5.60573e-014
lhumerus -74.0072 -26.6179 100.472
lradius 77.4462
lwrist 39.3282
lhand -21.2798 -14.3066
lfingers 7.12502
lthumb 5.10422 15.612
rfemur 6.80896 -1.92377 9.93399
rtibia 38.5769
rfoot -1.78537 -6.5661
rtoes -8.27551
lfemur -20.2862 8.92204 -24.5103
ltibia 49.0893
lfoot 0.226654 0.862571
ltoes -1.40702
